<?xml version='1.0' encoding='utf-8'?>
<svg xmlns="http://www.w3.org/2000/svg" xmlns:ns1="http://sodipodi.sourceforge.net/DTD/sodipodi-0.dtd" xmlns:ns2="http://www.inkscape.org/namespaces/inkscape" version="1.1" id="svg1" width="128" height="108" viewBox="1045.5 293.8 682.4 577.0" ns1:docname="ci_work.svg">
  <ns1:namedview id="namedview1" pagecolor="#ffffff" bordercolor="#000000" borderopacity="0.25" ns2:showpageshadow="2" ns2:pageopacity="0.0" ns2:pagecheckerboard="0" ns2:deskcolor="#d1d1d1" />
  <defs id="defs1" />
  <g id="g1">
    <path style="fill:#2596be;fill-opacity:1" d="m 1340.7963,850.60892 c -8.7902,-0.6541 -33.5095,-4.3462 -42.8878,-6.4058 -23.9215,-5.2534 -49.3875,-15.0786 -76.0377,-29.3365 l -14.4254,-7.7176 -12.5746,-8.6049 c -16.2761,-11.1378 -19.9778,-14.0745 -35.4417,-28.1166 l -12.8672,-11.6842 -7.7269,-9 c -30.911,-36.0037 -52.1953,-75.06431 -65.9334,-121 l -3.8879,-13 -1.7416,-12.98373 -1.7416,-12.98373 0.5791,-13.01627 0.579,-13.01627 2.0653,-9.5 c 2.7898,-12.83301 5.428,-20.62887 10.9982,-32.5 l 4.6923,-10 6.426,-8.98263 c 21.9823,-30.72841 54.4706,-52.46565 95.7084,-64.03639 l 6.272,-1.75982 0.7227,0.72207 0.7228,0.72208 v 25.65897 25.65898 l -10,3.5657 c -12.6962,4.52708 -16.2862,6.42189 -26.0603,13.75472 -9.7818,7.33858 -18.8002,16.58354 -24.7147,25.33545 l -4.4866,6.63913 -4.0152,10.36087 c -4.5564,11.7576 -5.8848,17.32261 -6.8063,28.51288 l -0.6463,7.84799 1.1911,8 c 6.4383,43.2416 33.2205,66.27231 90.3605,77.70338 l 11.1778,2.23617 19.5,-0.024 19.5,-0.024 9,-1.69196 c 26.9808,-5.07224 52.5422,-14.82578 76.7316,-29.27873 6.1976,-3.70299 20.5453,-12.91324 31.8838,-20.46723 57.3171,-38.18611 79.1683,-47.86613 146.8846,-65.06956 44.9665,-11.42381 68.8656,-20.48231 92,-34.87076 8.5238,-5.30142 13.0454,-8.98563 21.2429,-17.30878 l 5.7428,-5.83094 4.001,-6.73468 4.001,-6.73469 1.6323,-5.45216 c 0.8978,-2.99869 1.966,-8.15216 2.3737,-11.45216 l 0.7413,-6 -0.8719,-6.5 -0.8718,-6.5 -3.5397,-7.22854 -3.5396,-7.22853 -4.7282,-4.85426 -4.7282,-4.85426 -7.4778,-3.65217 c -8.9762,-4.38402 -16.8945,-6.53879 -26.9778,-7.34138 l -7.5,-0.59697 -9,1.1747 c -4.95,0.64609 -12.7799,2.06129 -17.3998,3.14489 -4.6199,1.0836 -8.6037,1.76632 -8.8529,1.51715 -0.5865,-0.58647 -0.4467,-51.71456 0.143,-52.30424 0.2458,-0.24579 5.771,-1.3532 12.2783,-2.46091 l 11.8314,-2.01403 17,0.52308 17,0.52308 8.2461,2.06014 c 4.5354,1.13308 12.3565,3.64756 17.3802,5.58773 l 9.1341,3.52759 8.1198,4.94453 8.1198,4.94454 7.6639,7.0463 7.6639,7.0463 4.4513,6.24763 c 5.5868,7.84139 10.006,16.56739 13.1443,25.9543 l 2.4385,7.29333 1.6416,11 1.6416,11 -0.6325,6.5 c -0.3478,3.575 -1.2967,10.45098 -2.1085,15.27996 l -1.476,8.77997 -3.3793,9.72003 c -1.8585,5.34602 -7.0658,19.62004 -11.5716,31.72004 -4.5058,12.1 -11.2577,30.55 -15.0042,41 -6.1488,17.15055 -10.1126,27.79579 -25.5062,68.5 -10.4093,27.52435 -19.8166,47.2065 -31.3066,65.5 -26.2499,41.7933 -50.5189,66.9429 -89.2174,92.4545 l -14.5572,9.5967 -14.0787,7.221 -14.0787,7.221 -15.3641,6.1165 c -24.2126,9.639 -39.6944,13.7699 -67.3641,17.9746 l -13,1.9754 -21.5,0.3576 c -11.825,0.1966 -23.975,0.1734 -27,-0.052 z" id="path61" />
    <path style="fill:#2596be;fill-opacity:1" d="m 1352.6808,784.69292 c 20.7134,-2.8693 34.2071,-6.7917 54.1155,-15.7305 28.9991,-13.0206 51.1713,-28.7481 74.507,-52.8505 l 11.007,-11.3686 12.3655,-16.5 c 6.8011,-9.075 12.8179,-16.95 13.3708,-17.5 l 1.0051,-1 -0.6177,5.59012 -0.6176,5.59008 -3.4854,11.4972 c -4.3981,14.5081 -8.3402,23.801 -15.1962,35.8226 -9.8512,17.2735 -23.9149,34.619 -38.3011,47.239 -3.5544,3.1181 -6.2124,5.9193 -5.9067,6.225 1.4515,1.4515 36.0286,-17.361 46.8693,-25.5004 1.925,-1.4453 6.9467,-5.2095 11.1593,-8.3648 23.4889,-17.5939 48.0348,-46.2367 65.214,-76.0988 7.7672,-13.50163 10.646,-19.55839 17.8235,-37.5 4.4267,-11.06533 18.0752,-47.63925 19.4941,-52.23836 l 0.5363,-1.73836 -8.3636,3.90566 c -4.6,2.14811 -15.8258,6.39132 -24.9463,9.42936 l -16.5827,5.52371 -20.9173,5.12554 c -25.9959,6.36999 -34.9917,8.89808 -53.7531,15.10617 l -14.8358,4.90912 -13.0905,5.98489 -13.0905,5.98488 -13.5737,8.15187 c -7.4655,4.48352 -18.9737,11.84143 -25.5737,16.35089 -35.6667,24.36943 -48.871,32.22863 -71.5896,42.61033 l -14.7207,6.7269 -12.3449,3.9951 c -13.114,4.244 -25.457,7.1374 -41.4959,9.7274 l -9.8489,1.5905 -18,-0.031 -18,-0.031 -11.5069,-1.5246 c -6.3288,-0.8384 -16.4538,-2.6168 -22.5,-3.9519 -6.0462,-1.335 -11.0901,-2.3334 -11.2087,-2.2186 -0.1186,0.1148 3.1813,3.9004 7.3332,8.4126 14.48,15.7363 36.7785,32.5077 55.8824,42.0309 l 10,4.985 12,4.0267 12,4.0267 10.5,2.1068 c 5.775,1.1587 15,2.5033 20.5,2.9878 l 10,0.881 12,-0.4793 c 6.6,-0.2636 16.673,-1.1267 22.3845,-1.9178 z" id="path60" />
    <path style="fill:#58a6ff;fill-opacity:1" d="m 1308.6814,627.91466 c -4.789,-1.77888 -8.6454,-4.60281 -13.5454,-9.91869 -5.3953,-5.8532 -8.6212,-11.6313 -11.8652,-21.25265 -3.3064,-9.80633 -7.1785,-16.7826 -12.121,-21.83781 l -3.7522,-3.83782 -6.5506,-3.29293 c -3.6029,-1.81111 -8.7016,-4.0208 -11.3305,-4.91043 -2.6289,-0.88963 -7.0912,-2.78881 -9.9164,-4.22041 l -5.1365,-2.6029 -5.1451,-5.14885 -5.1451,-5.14885 -2.5994,-5.5 -2.5994,-5.5 -1.1817,-6.5 -1.1817,-6.5 0.6179,-5 c 0.3397,-2.75 1.6189,-7.90586 2.8425,-11.45747 l 2.2247,-6.45747 5.3553,-5.78997 5.3554,-5.78996 7.1446,-3.48304 7.1447,-3.48303 6.5,-0.91653 6.5,-0.91653 44.5,0.147 44.5,0.147 4.7267,2.32791 4.7266,2.32791 2.678,3.17209 c 1.4729,1.74465 3.4985,4.97209 4.5014,7.17209 l 1.8234,4 -0.04,43 -0.04,43 -0.741,7.40368 -0.741,7.40368 -3.3724,2.81541 c -3.9135,3.26718 -22.8537,15.45109 -34.6829,22.31103 l -8.1609,4.73262 -3.8391,0.42385 -3.8391,0.42386 z m 80.7222,-46.92134 c 0.7878,-4.59384 6.0463,-15.13949 15.1004,-30.28309 4.2858,-7.1682 13.6423,-23.07716 20.7923,-35.35324 l 13,-22.32014 4.2721,-4.81824 4.272,-4.81825 4.2937,-2.07852 4.2936,-2.07852 h 5.005 5.005 l 5.429,2.75 5.429,2.75 3.5003,4.68952 c 3.4376,4.60547 28.0003,45.05695 28.0003,46.11264 0,0.29641 -1.4625,0.8537 -3.25,1.23843 -19.8175,4.26532 -57.8565,17.51233 -75.25,26.20564 -7.8497,3.9233 -32.9332,17.794 -35.9725,19.8921 -1.0849,0.74892 -2.5361,1.36167 -3.225,1.36167 h -1.2525 z m -154.8482,-123.1565 c -5.6241,-2.03197 -8.4763,-4.20899 -11.4996,-8.77759 l -2.7368,-4.13551 -0.3087,-7.0902 -0.3086,-7.0902 3.9054,-13.5 c 2.148,-7.425 7.3746,-25.2 11.6147,-39.5 l 7.7093,-26 2.9632,-4.63518 2.9631,-4.63518 3.8879,-2.6943 3.8879,-2.69429 6.0624,-1.88684 c 3.3344,-1.03777 11.8086,-3.21445 18.8316,-4.83706 7.023,-1.62261 23.3101,-5.91277 36.1935,-9.53368 l 23.4244,-6.58347 h 4.3902 4.3902 l 4.8632,2.09209 4.8632,2.0921 2.5259,3.6579 c 1.3893,2.01185 3.2218,5.33096 4.0722,7.37579 l 1.5463,3.71788 v 53.46702 53.46703 l -1.0559,2.8151 c -0.5807,1.54831 -2.2366,4.53105 -3.6798,6.62833 l -2.6239,3.81322 -4.5702,2.68678 -4.5702,2.68677 -56.5,0.22254 -56.5,0.22254 z m 212.2409,-0.0209 c -17.0084,-3.78034 -28.3363,-10.49377 -40.969,-24.2801 l -6.2066,-6.77341 -3.8464,-8.00956 c -2.1155,-4.40525 -4.6469,-10.93455 -5.6253,-14.50955 l -1.7789,-6.5 0.031,-11.5 0.031,-11.5 1.7708,-6.5 c 2.4195,-8.88159 7.4585,-19.40008 12.4555,-26 l 4.1642,-5.5 6.7366,-5.73907 6.7366,-5.73907 6.5,-3.41907 c 3.575,-1.88048 9.875,-4.46816 14,-5.75039 l 7.5,-2.33132 13,0.03 13,0.03 8,2.76808 8,2.76808 6.9782,4.19135 6.9782,4.19135 6.2728,5.8656 6.2728,5.86561 4.6375,7.44048 4.6374,7.44048 2.9493,8.55655 2.9494,8.55654 0.5293,11.13737 0.5293,11.13737 -2.1572,8.99762 c -5.6367,23.51114 -18.8283,39.45683 -41.3859,50.02635 l -7.1911,3.36943 -7.7078,1.5533 -7.7079,1.5533 -7.2921,-0.10247 -7.2922,-0.10247 z" id="path1-3" />
  </g>
</svg>